<?xml version="1.0" standalone="no"?><!DOCTYPE svg PUBLIC "-//W3C//DTD SVG 1.1//EN" "http://www.w3.org/Graphics/SVG/1.1/DTD/svg11.dtd">
<svg t="1546162197044" class="icon" style="" viewBox="0 0 1024 1024" version="1.1" 
    xmlns="http://www.w3.org/2000/svg" p-id="4256" 
    xmlns:xlink="http://www.w3.org/1999/xlink" width="32" height="32">
    <defs>
        <style type="text/css"></style>
    </defs>
    <path d="M512 0C230.4 0 0 228.8 0 512s228.8 512 512 512 512-228.8 512-512S795.2 0 512 0z m220.8 649.6c-16 14.4-36.8-44.8-40-36.8-8 22.4-11.2 36.8-33.6 60.8-1.6 1.6 25.6 11.2 33.6 30.4 6.4 19.2 20.8 49.6-70.4 59.2-54.4 6.4-92.8-28.8-96-27.2h-24c-1.6 0-19.2 27.2-99.2 27.2-62.4 0-78.4-38.4-65.6-59.2 12.8-20.8 33.6-27.2 30.4-30.4-16-16-25.6-33.6-32-49.6-1.6-3.2-3.2-8-3.2-11.2-1.6-8-19.2 49.6-38.4 36.8-19.2-12.8-17.6-48-4.8-80 12.8-33.6 43.2-65.6 43.2-72 1.6-25.6-3.2-30.4 0-36.8 6.4-16 12.8-9.6 12.8-17.6 0-100.8 75.2-182.4 169.6-182.4 92.8 0 169.6 81.6 169.6 182.4 0 3.2 9.6 0 14.4 17.6 1.6 3.2 1.6 17.6 0 36.8 0 9.6 25.6 20.8 40 72 12.8 49.6 0 73.6-6.4 80z" fill="#08B9FF" p-id="4257"></path>
</svg>