<?xml version="1.0" standalone="no"?><!DOCTYPE svg PUBLIC "-//W3C//DTD SVG 1.1//EN" "http://www.w3.org/Graphics/SVG/1.1/DTD/svg11.dtd">
<svg t="1546171677817" class="icon" style="" viewBox="0 0 1024 1024" version="1.1" 
    xmlns="http://www.w3.org/2000/svg" p-id="2795" 
    xmlns:xlink="http://www.w3.org/1999/xlink" width="32" height="32">
    <defs>
        <style type="text/css"></style>
    </defs>
    <path d="M512 0a512 512 0 1 0 512 512A512 512 0 0 0 512 0z" fill="#FAB619" p-id="2796"></path>
    <path d="M389.851429 604.16c13.531429-14.994286 186.88-112.64 186.88-112.64l-226.377143-30.72 302.811428-3.291429a14.628571 14.628571 0 0 1 0 21.577143c-10.605714 12.434286-171.52 122.514286-171.52 122.514286l182.857143 14.628571L658.285714 585.142857l146.285715-142.628571-202.971429-29.622857L512 238.445714l-90.697143 173.348572-201.874286 29.257143L365.714286 585.142857l-36.571429 200.411429 182.857143-95.451429 182.857143 95.451429-29.988572-163.84-275.017142 12.068571a19.017143 19.017143 0 0 1 0-27.794286z" fill="#FFFFFF" p-id="2797"></path>
</svg>