<?xml version="1.0" standalone="no"?><!DOCTYPE svg PUBLIC "-//W3C//DTD SVG 1.1//EN" "http://www.w3.org/Graphics/SVG/1.1/DTD/svg11.dtd">
<svg t="1546162057380" class="icon" style="" viewBox="0 0 1024 1024" version="1.1" 
    xmlns="http://www.w3.org/2000/svg" p-id="3447" 
    xmlns:xlink="http://www.w3.org/1999/xlink" width="32" height="32">
    <defs>
        <style type="text/css"></style>
    </defs>
    <path d="M711.111111 512c-14.222222 0-22.755556 11.377778-22.755555 25.6 0 11.377778 11.377778 22.755556 22.755555 22.755556 17.066667 0 28.444444-11.377778 28.444445-22.755556 0-14.222222-11.377778-25.6-28.444445-25.6z m-372.622222-170.666667c-17.066667 0-36.977778 11.377778-36.977778 28.444445s17.066667 28.444444 36.977778 28.444444c8.533333 0 14.222222-2.844444 19.911111-8.533333 5.688889-5.688889 8.533333-14.222222 8.533333-19.911111 0-8.533333-2.844444-14.222222-8.533333-19.911111-5.688889-5.688889-14.222222-8.533333-19.911111-8.533334z m423.822222 381.155556l17.066667 59.733333-62.577778-36.977778c-25.6 5.688889-48.355556 11.377778-71.111111 11.377778-110.933333 0-199.111111-76.8-199.111111-170.666666s88.177778-170.666667 199.111111-170.666667c105.244444 0 201.955556 76.8 201.955555 170.666667-2.844444 56.888889-36.977778 102.4-85.333333 136.533333z m-347.022222-79.644445c-28.444444 0-56.888889-5.688889-82.488889-14.222222l-85.333333 42.666667 25.6-71.111111c-59.733333-42.666667-93.866667-93.866667-93.866667-159.288889 0-113.777778 108.088889-199.111111 236.088889-199.111111 113.777778 0 219.022222 68.266667 236.088889 164.977778-8.533333-2.844444-14.222222-2.844444-22.755556-2.844445-113.777778 0-201.955556 85.333333-201.955555 187.733333 0 17.066667 2.844444 34.133333 5.688889 51.2h-17.066667zM512 0C230.4 0 0 230.4 0 512s230.4 512 512 512 512-230.4 512-512S793.6 0 512 0z m-8.533333 398.222222c8.533333 0 17.066667-2.844444 22.755555-8.533333 5.688889-5.688889 8.533333-14.222222 8.533334-19.911111 0-8.533333-2.844444-17.066667-8.533334-22.755556-8.533333-2.844444-14.222222-5.688889-22.755555-5.688889-17.066667 0-34.133333 11.377778-34.133334 28.444445s17.066667 28.444444 34.133334 28.444444z m76.8 113.777778c-14.222222 0-22.755556 11.377778-22.755556 25.6 0 11.377778 11.377778 19.911111 22.755556 22.755556 17.066667 0 28.444444-11.377778 28.444444-22.755556 0-14.222222-11.377778-25.6-28.444444-25.6z" fill="#19D100" p-id="3448"></path>
</svg>