<?xml version="1.0" standalone="no"?><!DOCTYPE svg PUBLIC "-//W3C//DTD SVG 1.1//EN" "http://www.w3.org/Graphics/SVG/1.1/DTD/svg11.dtd">
<svg t="1546319548559" class="icon" style="" viewBox="0 0 1024 1024" version="1.1" 
    xmlns="http://www.w3.org/2000/svg" p-id="2777" 
    xmlns:xlink="http://www.w3.org/1999/xlink" width="32" height="32">
    <defs>
        <style type="text/css"></style>
    </defs>
    <path d="M512 512m-512 0a512 512 0 1 0 1024 0 512 512 0 1 0-1024 0Z" fill="#FFFFFF" p-id="2778"></path>
    <path d="M448.512 482.304c-97.28 5.12-175.104 57.344-175.104 121.856s77.824 114.688 175.104 110.592S623.616 648.192 623.616 583.68c-1.024-64.512-78.848-105.472-175.104-101.376z m65.536 164.864c-29.696 38.912-89.088 57.344-145.408 25.6-27.648-14.336-25.6-43.008-25.6-43.008s-11.264-92.16 84.992-103.424c97.28-12.288 115.712 80.896 86.016 120.832z" fill="#FF6666" p-id="2779"></path>
    <path d="M448.512 584.704c-6.144 5.12-8.192 12.288-3.072 18.432 2.048 5.12 11.264 6.144 16.384 2.048 6.144-4.096 8.192-12.288 5.12-18.432-4.096-5.12-11.264-6.144-18.432-2.048z m-46.08 12.288c-18.432 2.048-30.72 18.432-30.72 32.768 0 15.36 15.36 26.624 32.768 24.576s32.768-15.36 32.768-31.744c1.024-15.36-14.336-26.624-34.816-25.6z" fill="#FF6666" p-id="2780"></path>
    <path d="M512 0C229.376 0 0 229.376 0 512s229.376 512 512 512 512-228.352 512-512S795.648 0 512 0z m196.608 626.688C668.672 712.704 537.6 754.688 440.32 746.496c-92.16-8.192-210.944-38.912-223.232-151.552 0 0-6.144-51.2 43.008-117.76 0 0 70.656-100.352 152.576-128 82.944-28.672 92.16 19.456 92.16 49.152-4.096 23.552-12.288 38.912 18.432 28.672 0 0 80.896-38.912 114.688-5.12 27.648 27.648 5.12 64.512 5.12 64.512s-11.264 12.288 12.288 17.408c21.504 3.072 94.208 36.864 53.248 122.88z m-78.848-236.544c-8.192 0-15.36-8.192-15.36-15.36 0-9.216 8.192-15.36 15.36-15.36 0 0 99.328-18.432 87.04 90.112v1.024c-1.024 8.192-8.192 13.312-16.384 13.312-9.216 0-15.36-8.192-15.36-15.36 0-3.072 15.36-74.752-55.296-58.368z m167.936 103.424c-2.048 18.432-12.288 11.264-22.528 11.264-12.288 0-22.528-16.384-22.528-29.696 0-11.264 5.12-22.528 5.12-22.528 1.024-5.12 12.288-34.816-8.192-78.848-35.84-60.416-106.496-60.416-114.688-57.344-8.192 4.096-21.504 6.144-21.504 6.144-12.288 0-22.528-10.24-22.528-22.528 0-11.264 8.192-19.456 17.408-22.528 0 0 0 1.024 1.024 1.024s2.048 1.024 2.048 1.024c10.24-2.048 46.08-5.12 79.872 3.072 59.392 14.336 144.384 83.968 106.496 210.944z" fill="#FF5050" p-id="2781"></path>
</svg>